# xmcd CD database file
#
# Track frame offsets:
#	150
#	15840
#	29662
#	42950
#	57327
#	71370
#	87255
#	102435
#	115802
#	129715
#	143852
#	158095
#	171370
#	184295
#	196330
#	215817
#	235562
#	252762
#	269037
#	280090
#	299470
#
# Disc length: 4243 seconds
#
# Revision: 1
# Processed by: cddbd v1.5.1PL0 Copyright (c) Steve Scherf et al.
# Submitted via: CDex 1.51
#
DISCID=3c109115
DTITLE=Humphrey Lyttelton - Delving Back With Humph
DYEAR=1997
DGENRE=Jazz
TTITLE0=The Thin Red Line
TTITLE1=Melancholy Blues
TTITLE2=Cakewalkin' Babies
TTITLE3=If You See Me Comin'
TTITLE4=Panama
TTITLE5=Working Man Blues
TTITLE6=Fidgety Feet
TTITLE7=Weary Blues
TTITLE8=Ole Miss Rag
TTITLE9=Vox Humana
TTITLE10=Elizabeth
TTITLE11=Blue For Waterloo
TTITLE12=First Of many
TTITLE13=Blues For Two
TTITLE14=High Society
TTITLE15=Royal Garden Blues
TTITLE16=Who's Sorry Now
TTITLE17=Humph Meets Trog
TTITLE18=Bugle Call Rag
TTITLE19=That Da Da Strain
TTITLE20=Sugar
EXTD=YEAR: 1997
EXTT0=
EXTT1=
EXTT2=
EXTT3=
EXTT4=
EXTT5=
EXTT6=
EXTT7=
EXTT8=
EXTT9=
EXTT10=
EXTT11=
EXTT12=
EXTT13=
EXTT14=
EXTT15=
EXTT16=
EXTT17=
EXTT18=
EXTT19=
EXTT20=
PLAYORDER=
